<mxfile host="app.diagrams.net" agent="Mozilla/5.0 (Windows NT 10.0; Win64; x64) AppleWebKit/537.36 (KHTML, like Gecko) Chrome/128.0.0.0 Safari/537.36" version="24.7.12">
  <diagram id="C5RBs43oDa-KdzZeNtuy" name="Page-1">
    <mxGraphModel dx="1290" dy="530" grid="1" gridSize="10" guides="1" tooltips="1" connect="1" arrows="1" fold="1" page="1" pageScale="1" pageWidth="827" pageHeight="1169" math="0" shadow="0">
      <root>
        <mxCell id="WIyWlLk6GJQsqaUBKTNV-0" />
        <mxCell id="WIyWlLk6GJQsqaUBKTNV-1" parent="WIyWlLk6GJQsqaUBKTNV-0" />
        <mxCell id="knwaW2PvY2zNtfLG_OPN-0" value="User : IdentityUser" style="swimlane;fontStyle=1;align=center;verticalAlign=top;childLayout=stackLayout;horizontal=1;startSize=26;horizontalStack=0;resizeParent=1;resizeParentMax=0;resizeLast=0;collapsible=1;marginBottom=0;whiteSpace=wrap;html=1;" parent="WIyWlLk6GJQsqaUBKTNV-1" vertex="1">
          <mxGeometry x="360" y="230" width="160" height="110" as="geometry" />
        </mxCell>
        <mxCell id="knwaW2PvY2zNtfLG_OPN-1" value="&lt;span style=&quot;text-align: justify; background-color: initial;&quot;&gt;Email&lt;/span&gt;&lt;br&gt;&lt;span style=&quot;text-align: justify; background-color: initial;&quot;&gt;Name&lt;/span&gt;&lt;div&gt;&lt;span style=&quot;text-align: justify; background-color: initial;&quot;&gt;Ingredients&lt;/span&gt;&lt;/div&gt;&lt;div&gt;&lt;span style=&quot;text-align: justify; background-color: initial;&quot;&gt;Recipes&lt;/span&gt;&lt;/div&gt;&lt;div&gt;&lt;span style=&quot;text-align: justify; background-color: initial;&quot;&gt;GroceryList&lt;/span&gt;&lt;/div&gt;" style="text;strokeColor=none;fillColor=none;align=left;verticalAlign=top;spacingLeft=4;spacingRight=4;overflow=hidden;rotatable=0;points=[[0,0.5],[1,0.5]];portConstraint=eastwest;whiteSpace=wrap;html=1;" parent="knwaW2PvY2zNtfLG_OPN-0" vertex="1">
          <mxGeometry y="26" width="160" height="84" as="geometry" />
        </mxCell>
        <mxCell id="knwaW2PvY2zNtfLG_OPN-12" value="Recipe" style="swimlane;fontStyle=1;align=center;verticalAlign=top;childLayout=stackLayout;horizontal=1;startSize=26;horizontalStack=0;resizeParent=1;resizeParentMax=0;resizeLast=0;collapsible=1;marginBottom=0;whiteSpace=wrap;html=1;" parent="WIyWlLk6GJQsqaUBKTNV-1" vertex="1">
          <mxGeometry x="80" y="169.99999999999994" width="160" height="100" as="geometry" />
        </mxCell>
        <mxCell id="knwaW2PvY2zNtfLG_OPN-13" value="&lt;div&gt;mId&lt;/div&gt;&lt;div&gt;mUserId&lt;/div&gt;&lt;div&gt;mIngredients&lt;/div&gt;&lt;div&gt;mDirections&lt;/div&gt;" style="text;strokeColor=none;fillColor=none;align=left;verticalAlign=top;spacingLeft=4;spacingRight=4;overflow=hidden;rotatable=0;points=[[0,0.5],[1,0.5]];portConstraint=eastwest;whiteSpace=wrap;html=1;" parent="knwaW2PvY2zNtfLG_OPN-12" vertex="1">
          <mxGeometry y="26" width="160" height="74" as="geometry" />
        </mxCell>
        <mxCell id="knwaW2PvY2zNtfLG_OPN-16" value="CommonIngredient" style="swimlane;fontStyle=1;align=center;verticalAlign=top;childLayout=stackLayout;horizontal=1;startSize=26;horizontalStack=0;resizeParent=1;resizeParentMax=0;resizeLast=0;collapsible=1;marginBottom=0;whiteSpace=wrap;html=1;" parent="WIyWlLk6GJQsqaUBKTNV-1" vertex="1">
          <mxGeometry x="360" y="510" width="160" height="60" as="geometry" />
        </mxCell>
        <mxCell id="knwaW2PvY2zNtfLG_OPN-17" value="Interfaces IIngredient" style="text;strokeColor=none;fillColor=none;align=left;verticalAlign=top;spacingLeft=4;spacingRight=4;overflow=hidden;rotatable=0;points=[[0,0.5],[1,0.5]];portConstraint=eastwest;whiteSpace=wrap;html=1;" parent="knwaW2PvY2zNtfLG_OPN-16" vertex="1">
          <mxGeometry y="26" width="160" height="34" as="geometry" />
        </mxCell>
        <mxCell id="knwaW2PvY2zNtfLG_OPN-20" value="UserIngredient" style="swimlane;fontStyle=1;align=center;verticalAlign=top;childLayout=stackLayout;horizontal=1;startSize=26;horizontalStack=0;resizeParent=1;resizeParentMax=0;resizeLast=0;collapsible=1;marginBottom=0;whiteSpace=wrap;html=1;" parent="WIyWlLk6GJQsqaUBKTNV-1" vertex="1">
          <mxGeometry x="640" y="319.99999999999994" width="160" height="170" as="geometry" />
        </mxCell>
        <mxCell id="knwaW2PvY2zNtfLG_OPN-21" value="&lt;span style=&quot;background-color: initial;&quot;&gt;mId&lt;/span&gt;&lt;br&gt;&lt;span style=&quot;background-color: initial;&quot;&gt;mUserId&lt;/span&gt;&lt;br&gt;&lt;span style=&quot;background-color: initial;&quot;&gt;mIngredientId&lt;/span&gt;&lt;br&gt;&lt;span style=&quot;background-color: initial;&quot;&gt;mDateAdded&lt;/span&gt;&lt;br&gt;&lt;span style=&quot;background-color: initial;&quot;&gt;mQuantity&lt;/span&gt;&lt;br&gt;&lt;span style=&quot;background-color: initial;&quot;&gt;mQuantityUnit&lt;/span&gt;&lt;br&gt;&lt;span style=&quot;background-color: initial;&quot;&gt;mNotes&lt;/span&gt;" style="text;strokeColor=none;fillColor=none;align=left;verticalAlign=top;spacingLeft=4;spacingRight=4;overflow=hidden;rotatable=0;points=[[0,0.5],[1,0.5]];portConstraint=eastwest;whiteSpace=wrap;html=1;" parent="knwaW2PvY2zNtfLG_OPN-20" vertex="1">
          <mxGeometry y="26" width="160" height="144" as="geometry" />
        </mxCell>
        <mxCell id="knwaW2PvY2zNtfLG_OPN-28" value="GroceryList" style="swimlane;fontStyle=1;align=center;verticalAlign=top;childLayout=stackLayout;horizontal=1;startSize=26;horizontalStack=0;resizeParent=1;resizeParentMax=0;resizeLast=0;collapsible=1;marginBottom=0;whiteSpace=wrap;html=1;" parent="WIyWlLk6GJQsqaUBKTNV-1" vertex="1">
          <mxGeometry x="80" y="320" width="160" height="80" as="geometry" />
        </mxCell>
        <mxCell id="knwaW2PvY2zNtfLG_OPN-29" value="&lt;div&gt;mId&lt;/div&gt;&lt;div&gt;mUserId&lt;/div&gt;&lt;div&gt;mIngredients&lt;/div&gt;" style="text;strokeColor=none;fillColor=none;align=left;verticalAlign=top;spacingLeft=4;spacingRight=4;overflow=hidden;rotatable=0;points=[[0,0.5],[1,0.5]];portConstraint=eastwest;whiteSpace=wrap;html=1;" parent="knwaW2PvY2zNtfLG_OPN-28" vertex="1">
          <mxGeometry y="26" width="160" height="54" as="geometry" />
        </mxCell>
        <mxCell id="knwaW2PvY2zNtfLG_OPN-33" style="rounded=0;orthogonalLoop=1;jettySize=auto;html=1;exitX=1;exitY=0.5;exitDx=0;exitDy=0;entryX=0;entryY=0.5;entryDx=0;entryDy=0;edgeStyle=orthogonalEdgeStyle;" parent="WIyWlLk6GJQsqaUBKTNV-1" source="knwaW2PvY2zNtfLG_OPN-1" target="knwaW2PvY2zNtfLG_OPN-21" edge="1">
          <mxGeometry relative="1" as="geometry" />
        </mxCell>
        <mxCell id="knwaW2PvY2zNtfLG_OPN-34" value="0..*" style="edgeLabel;html=1;align=center;verticalAlign=middle;resizable=0;points=[];" parent="knwaW2PvY2zNtfLG_OPN-33" vertex="1" connectable="0">
          <mxGeometry x="-0.825" y="3" relative="1" as="geometry">
            <mxPoint x="29" y="15" as="offset" />
          </mxGeometry>
        </mxCell>
        <mxCell id="knwaW2PvY2zNtfLG_OPN-36" value="0..*" style="edgeLabel;html=1;align=center;verticalAlign=middle;resizable=0;points=[];" parent="knwaW2PvY2zNtfLG_OPN-33" vertex="1" connectable="0">
          <mxGeometry x="0.8375" relative="1" as="geometry">
            <mxPoint x="-7" y="-13" as="offset" />
          </mxGeometry>
        </mxCell>
        <mxCell id="knwaW2PvY2zNtfLG_OPN-37" style="edgeStyle=orthogonalEdgeStyle;rounded=0;orthogonalLoop=1;jettySize=auto;html=1;exitX=1;exitY=0.5;exitDx=0;exitDy=0;entryX=1;entryY=0.5;entryDx=0;entryDy=0;" parent="WIyWlLk6GJQsqaUBKTNV-1" source="knwaW2PvY2zNtfLG_OPN-21" target="knwaW2PvY2zNtfLG_OPN-17" edge="1">
          <mxGeometry relative="1" as="geometry" />
        </mxCell>
        <mxCell id="knwaW2PvY2zNtfLG_OPN-39" value="*" style="edgeLabel;html=1;align=center;verticalAlign=middle;resizable=0;points=[];" parent="knwaW2PvY2zNtfLG_OPN-37" vertex="1" connectable="0">
          <mxGeometry x="-0.8564" relative="1" as="geometry">
            <mxPoint x="-10" y="-30" as="offset" />
          </mxGeometry>
        </mxCell>
        <mxCell id="knwaW2PvY2zNtfLG_OPN-40" value="*" style="edgeLabel;html=1;align=center;verticalAlign=middle;resizable=0;points=[];" parent="knwaW2PvY2zNtfLG_OPN-37" vertex="1" connectable="0">
          <mxGeometry x="0.8916" y="3" relative="1" as="geometry">
            <mxPoint x="-13" y="-10" as="offset" />
          </mxGeometry>
        </mxCell>
        <mxCell id="knwaW2PvY2zNtfLG_OPN-42" style="edgeStyle=orthogonalEdgeStyle;rounded=0;orthogonalLoop=1;jettySize=auto;html=1;entryX=1;entryY=0.5;entryDx=0;entryDy=0;" parent="WIyWlLk6GJQsqaUBKTNV-1" source="knwaW2PvY2zNtfLG_OPN-1" target="knwaW2PvY2zNtfLG_OPN-13" edge="1">
          <mxGeometry relative="1" as="geometry" />
        </mxCell>
        <mxCell id="knwaW2PvY2zNtfLG_OPN-45" value="0..*" style="edgeLabel;html=1;align=center;verticalAlign=middle;resizable=0;points=[];" parent="knwaW2PvY2zNtfLG_OPN-42" vertex="1" connectable="0">
          <mxGeometry x="0.8707" y="1" relative="1" as="geometry">
            <mxPoint x="58" y="56" as="offset" />
          </mxGeometry>
        </mxCell>
        <mxCell id="knwaW2PvY2zNtfLG_OPN-46" value="1" style="edgeLabel;html=1;align=center;verticalAlign=middle;resizable=0;points=[];" parent="knwaW2PvY2zNtfLG_OPN-42" vertex="1" connectable="0">
          <mxGeometry x="0.8396" y="-1" relative="1" as="geometry">
            <mxPoint y="-7" as="offset" />
          </mxGeometry>
        </mxCell>
        <mxCell id="knwaW2PvY2zNtfLG_OPN-43" style="edgeStyle=orthogonalEdgeStyle;rounded=0;orthogonalLoop=1;jettySize=auto;html=1;entryX=1;entryY=0.5;entryDx=0;entryDy=0;" parent="WIyWlLk6GJQsqaUBKTNV-1" source="knwaW2PvY2zNtfLG_OPN-1" target="knwaW2PvY2zNtfLG_OPN-29" edge="1">
          <mxGeometry relative="1" as="geometry" />
        </mxCell>
        <mxCell id="knwaW2PvY2zNtfLG_OPN-47" value="1" style="edgeLabel;html=1;align=center;verticalAlign=middle;resizable=0;points=[];" parent="knwaW2PvY2zNtfLG_OPN-43" vertex="1" connectable="0">
          <mxGeometry x="-0.3341" relative="1" as="geometry">
            <mxPoint x="10" y="7" as="offset" />
          </mxGeometry>
        </mxCell>
        <mxCell id="knwaW2PvY2zNtfLG_OPN-48" value="1" style="edgeLabel;html=1;align=center;verticalAlign=middle;resizable=0;points=[];" parent="knwaW2PvY2zNtfLG_OPN-43" vertex="1" connectable="0">
          <mxGeometry x="0.8595" relative="1" as="geometry">
            <mxPoint y="-14" as="offset" />
          </mxGeometry>
        </mxCell>
        <mxCell id="knwaW2PvY2zNtfLG_OPN-49" style="edgeStyle=orthogonalEdgeStyle;rounded=0;orthogonalLoop=1;jettySize=auto;html=1;entryX=0;entryY=0.5;entryDx=0;entryDy=0;" parent="WIyWlLk6GJQsqaUBKTNV-1" source="knwaW2PvY2zNtfLG_OPN-13" target="knwaW2PvY2zNtfLG_OPN-17" edge="1">
          <mxGeometry relative="1" as="geometry">
            <Array as="points">
              <mxPoint x="20" y="228" />
              <mxPoint x="20" y="580" />
              <mxPoint x="280" y="580" />
              <mxPoint x="280" y="553" />
            </Array>
          </mxGeometry>
        </mxCell>
        <mxCell id="knwaW2PvY2zNtfLG_OPN-51" value="*" style="edgeLabel;html=1;align=center;verticalAlign=middle;resizable=0;points=[];" parent="knwaW2PvY2zNtfLG_OPN-49" vertex="1" connectable="0">
          <mxGeometry x="-0.9653" relative="1" as="geometry">
            <mxPoint x="3" y="-8" as="offset" />
          </mxGeometry>
        </mxCell>
        <mxCell id="knwaW2PvY2zNtfLG_OPN-54" value="*" style="edgeLabel;html=1;align=center;verticalAlign=middle;resizable=0;points=[];" parent="knwaW2PvY2zNtfLG_OPN-49" vertex="1" connectable="0">
          <mxGeometry x="0.76" y="-1" relative="1" as="geometry">
            <mxPoint x="9" as="offset" />
          </mxGeometry>
        </mxCell>
        <mxCell id="knwaW2PvY2zNtfLG_OPN-50" style="edgeStyle=orthogonalEdgeStyle;rounded=0;orthogonalLoop=1;jettySize=auto;html=1;entryX=0;entryY=0.5;entryDx=0;entryDy=0;" parent="WIyWlLk6GJQsqaUBKTNV-1" source="knwaW2PvY2zNtfLG_OPN-29" target="knwaW2PvY2zNtfLG_OPN-17" edge="1">
          <mxGeometry relative="1" as="geometry">
            <Array as="points">
              <mxPoint x="50" y="373" />
              <mxPoint x="50" y="530" />
              <mxPoint x="280" y="530" />
              <mxPoint x="280" y="553" />
            </Array>
          </mxGeometry>
        </mxCell>
        <mxCell id="knwaW2PvY2zNtfLG_OPN-52" value="*" style="edgeLabel;html=1;align=center;verticalAlign=middle;resizable=0;points=[];" parent="knwaW2PvY2zNtfLG_OPN-50" vertex="1" connectable="0">
          <mxGeometry x="-0.9751" relative="1" as="geometry">
            <mxPoint y="-3" as="offset" />
          </mxGeometry>
        </mxCell>
        <mxCell id="knwaW2PvY2zNtfLG_OPN-53" value="*" style="edgeLabel;html=1;align=center;verticalAlign=middle;resizable=0;points=[];" parent="knwaW2PvY2zNtfLG_OPN-50" vertex="1" connectable="0">
          <mxGeometry x="0.5731" y="-2" relative="1" as="geometry">
            <mxPoint x="18" y="8" as="offset" />
          </mxGeometry>
        </mxCell>
        <mxCell id="nA2bAaE7EZ4ByUMAsZF6-16" value="" style="edgeStyle=orthogonalEdgeStyle;rounded=0;orthogonalLoop=1;jettySize=auto;html=1;" edge="1" parent="WIyWlLk6GJQsqaUBKTNV-1" source="nA2bAaE7EZ4ByUMAsZF6-10" target="nA2bAaE7EZ4ByUMAsZF6-15">
          <mxGeometry relative="1" as="geometry" />
        </mxCell>
        <mxCell id="nA2bAaE7EZ4ByUMAsZF6-19" value="" style="edgeStyle=orthogonalEdgeStyle;rounded=0;orthogonalLoop=1;jettySize=auto;html=1;" edge="1" parent="WIyWlLk6GJQsqaUBKTNV-1" source="nA2bAaE7EZ4ByUMAsZF6-10" target="nA2bAaE7EZ4ByUMAsZF6-15">
          <mxGeometry relative="1" as="geometry" />
        </mxCell>
        <mxCell id="nA2bAaE7EZ4ByUMAsZF6-20" value="" style="edgeStyle=orthogonalEdgeStyle;rounded=0;orthogonalLoop=1;jettySize=auto;html=1;" edge="1" parent="WIyWlLk6GJQsqaUBKTNV-1" source="nA2bAaE7EZ4ByUMAsZF6-10" target="nA2bAaE7EZ4ByUMAsZF6-15">
          <mxGeometry relative="1" as="geometry" />
        </mxCell>
        <mxCell id="nA2bAaE7EZ4ByUMAsZF6-22" value="" style="edgeStyle=orthogonalEdgeStyle;rounded=0;orthogonalLoop=1;jettySize=auto;html=1;exitX=0.5;exitY=1;exitDx=0;exitDy=0;" edge="1" parent="WIyWlLk6GJQsqaUBKTNV-1" source="nA2bAaE7EZ4ByUMAsZF6-10" target="nA2bAaE7EZ4ByUMAsZF6-21">
          <mxGeometry relative="1" as="geometry" />
        </mxCell>
        <mxCell id="nA2bAaE7EZ4ByUMAsZF6-10" value="IIngredient" style="swimlane;fontStyle=1;align=center;verticalAlign=top;childLayout=stackLayout;horizontal=1;startSize=26;horizontalStack=0;resizeParent=1;resizeParentMax=0;resizeLast=0;collapsible=1;marginBottom=0;whiteSpace=wrap;html=1;" vertex="1" parent="WIyWlLk6GJQsqaUBKTNV-1">
          <mxGeometry x="1090" y="69.99999999999994" width="160" height="110" as="geometry" />
        </mxCell>
        <mxCell id="nA2bAaE7EZ4ByUMAsZF6-11" value="&lt;div&gt;Id&lt;/div&gt;&lt;div&gt;Name&lt;/div&gt;&lt;div&gt;Type&lt;/div&gt;&lt;div&gt;DateAdded&lt;/div&gt;&lt;div&gt;?ExpirationDate&lt;/div&gt;" style="text;strokeColor=none;fillColor=none;align=left;verticalAlign=top;spacingLeft=4;spacingRight=4;overflow=hidden;rotatable=0;points=[[0,0.5],[1,0.5]];portConstraint=eastwest;whiteSpace=wrap;html=1;" vertex="1" parent="nA2bAaE7EZ4ByUMAsZF6-10">
          <mxGeometry y="26" width="160" height="84" as="geometry" />
        </mxCell>
        <mxCell id="nA2bAaE7EZ4ByUMAsZF6-15" value="CommonIngredient" style="whiteSpace=wrap;html=1;verticalAlign=top;fontStyle=1;startSize=26;" vertex="1" parent="WIyWlLk6GJQsqaUBKTNV-1">
          <mxGeometry x="980" y="272.5" width="120" height="25" as="geometry" />
        </mxCell>
        <mxCell id="nA2bAaE7EZ4ByUMAsZF6-21" value="CustomIngredient" style="whiteSpace=wrap;html=1;verticalAlign=top;fontStyle=1;startSize=26;" vertex="1" parent="WIyWlLk6GJQsqaUBKTNV-1">
          <mxGeometry x="1230" y="272.5" width="120" height="27.5" as="geometry" />
        </mxCell>
        <mxCell id="nA2bAaE7EZ4ByUMAsZF6-24" value="CustomIngredient" style="swimlane;fontStyle=1;align=center;verticalAlign=top;childLayout=stackLayout;horizontal=1;startSize=26;horizontalStack=0;resizeParent=1;resizeParentMax=0;resizeLast=0;collapsible=1;marginBottom=0;whiteSpace=wrap;html=1;" vertex="1" parent="WIyWlLk6GJQsqaUBKTNV-1">
          <mxGeometry x="640" y="169.99999999999994" width="160" height="50" as="geometry" />
        </mxCell>
        <mxCell id="nA2bAaE7EZ4ByUMAsZF6-25" value="&lt;div&gt;Interfaces IIngredient&lt;/div&gt;" style="text;strokeColor=none;fillColor=none;align=left;verticalAlign=top;spacingLeft=4;spacingRight=4;overflow=hidden;rotatable=0;points=[[0,0.5],[1,0.5]];portConstraint=eastwest;whiteSpace=wrap;html=1;" vertex="1" parent="nA2bAaE7EZ4ByUMAsZF6-24">
          <mxGeometry y="26" width="160" height="24" as="geometry" />
        </mxCell>
        <mxCell id="nA2bAaE7EZ4ByUMAsZF6-23" style="edgeStyle=orthogonalEdgeStyle;rounded=0;orthogonalLoop=1;jettySize=auto;html=1;entryX=0;entryY=0.5;entryDx=0;entryDy=0;" edge="1" parent="WIyWlLk6GJQsqaUBKTNV-1" source="knwaW2PvY2zNtfLG_OPN-1" target="nA2bAaE7EZ4ByUMAsZF6-24">
          <mxGeometry relative="1" as="geometry">
            <mxPoint x="610" y="140" as="targetPoint" />
          </mxGeometry>
        </mxCell>
        <mxCell id="nA2bAaE7EZ4ByUMAsZF6-28" value="0..*" style="edgeLabel;html=1;align=center;verticalAlign=middle;resizable=0;points=[];" vertex="1" connectable="0" parent="nA2bAaE7EZ4ByUMAsZF6-23">
          <mxGeometry x="-0.3154" relative="1" as="geometry">
            <mxPoint x="-10" y="3" as="offset" />
          </mxGeometry>
        </mxCell>
        <mxCell id="nA2bAaE7EZ4ByUMAsZF6-29" value="1" style="edgeLabel;html=1;align=center;verticalAlign=middle;resizable=0;points=[];" vertex="1" connectable="0" parent="nA2bAaE7EZ4ByUMAsZF6-23">
          <mxGeometry x="0.7572" y="-1" relative="1" as="geometry">
            <mxPoint x="7" y="-6" as="offset" />
          </mxGeometry>
        </mxCell>
      </root>
    </mxGraphModel>
  </diagram>
</mxfile>
